solid 
facet normal 0 0 1
  outer loop
    vertex 163.8000031 0 20
    vertex 162.5 -1.592040776e-16 20
    vertex 162.7482758 -0.7641208172 20
  endloop
endfacet
facet normal 0 0 1
  outer loop
    vertex 163.8000031 0 20
    vertex 162.7482758 -0.7641208172 20
    vertex 163.3982849 -1.236373425 20
  endloop
endfacet
facet normal 0 0 1
  outer loop
    vertex 163.8000031 0 20
    vertex 163.3982849 -1.236373425 20
    vertex 164.2017212 -1.236373425 20
  endloop
endfacet
facet normal 0 0 1
  outer loop
    vertex 163.8000031 0 20
    vertex 164.2017212 -1.236373425 20
    vertex 164.8517151 -0.7641208172 20
  endloop
endfacet
facet normal 0 0 1
  outer loop
    vertex 163.8000031 0 20
    vertex 164.8517151 -0.7641208172 20
    vertex 165.1000061 0 20
  endloop
endfacet
facet normal 0 0 1
  outer loop
    vertex 163.8000031 0 20
    vertex 165.1000061 0 20
    vertex 164.8517151 0.7641208172 20
  endloop
endfacet
facet normal 0 0 1
  outer loop
    vertex 163.8000031 0 20
    vertex 164.8517151 0.7641208172 20
    vertex 164.2017212 1.236373425 20
  endloop
endfacet
facet normal 0 0 1
  outer loop
    vertex 163.8000031 0 20
    vertex 164.2017212 1.236373425 20
    vertex 163.3982849 1.236373425 20
  endloop
endfacet
facet normal 0 0 1
  outer loop
    vertex 163.8000031 0 20
    vertex 163.3982849 1.236373425 20
    vertex 162.7482758 0.7641208172 20
  endloop
endfacet
facet normal 0 0 1
  outer loop
    vertex 163.8000031 0 20
    vertex 162.7482758 0.7641208172 20
    vertex 162.5 -1.592040776e-16 20
  endloop
endfacet
facet normal 0 0 -1
  outer loop
    vertex 163.8000031 0 -20
    vertex 162.5 -1.592040776e-16 -20
    vertex 162.7482758 0.7641208172 -20
  endloop
endfacet
facet normal 0 0 -1
  outer loop
    vertex 163.8000031 0 -20
    vertex 162.7482758 0.7641208172 -20
    vertex 163.3982849 1.236373425 -20
  endloop
endfacet
facet normal 0 0 -1
  outer loop
    vertex 163.8000031 0 -20
    vertex 163.3982849 1.236373425 -20
    vertex 164.2017212 1.236373425 -20
  endloop
endfacet
facet normal 0 0 -1
  outer loop
    vertex 163.8000031 0 -20
    vertex 164.2017212 1.236373425 -20
    vertex 164.8517151 0.7641208172 -20
  endloop
endfacet
facet normal 0 0 -1
  outer loop
    vertex 163.8000031 0 -20
    vertex 164.8517151 0.7641208172 -20
    vertex 165.1000061 0 -20
  endloop
endfacet
facet normal 0 0 -1
  outer loop
    vertex 163.8000031 0 -20
    vertex 165.1000061 0 -20
    vertex 164.8517151 -0.7641208172 -20
  endloop
endfacet
facet normal 0 0 -1
  outer loop
    vertex 163.8000031 0 -20
    vertex 164.8517151 -0.7641208172 -20
    vertex 164.2017212 -1.236373425 -20
  endloop
endfacet
facet normal 0 0 -1
  outer loop
    vertex 163.8000031 0 -20
    vertex 164.2017212 -1.236373425 -20
    vertex 163.3982849 -1.236373425 -20
  endloop
endfacet
facet normal 0 0 -1
  outer loop
    vertex 163.8000031 0 -20
    vertex 163.3982849 -1.236373425 -20
    vertex 162.7482758 -0.7641208172 -20
  endloop
endfacet
facet normal 0 0 -1
  outer loop
    vertex 163.8000031 0 -20
    vertex 162.7482758 -0.7641208172 -20
    vertex 162.5 -1.592040776e-16 -20
  endloop
endfacet
facet normal -0.95105654 -0.3090170026 0
  outer loop
    vertex 162.5 -1.592040776e-16 -20
    vertex 162.7482758 -0.7641208172 -20
    vertex 162.7482758 -0.7641208172 20
  endloop
endfacet
facet normal -0.95105654 -0.3090170026 0
  outer loop
    vertex 162.5 -1.592040776e-16 -20
    vertex 162.7482758 -0.7641208172 20
    vertex 162.5 -1.592040776e-16 20
  endloop
endfacet
facet normal -0.587785244 -0.8090170026 0
  outer loop
    vertex 162.7482758 -0.7641208172 -20
    vertex 163.3982849 -1.236373425 -20
    vertex 163.3982849 -1.236373425 20
  endloop
endfacet
facet normal -0.587785244 -0.8090170026 0
  outer loop
    vertex 162.7482758 -0.7641208172 -20
    vertex 163.3982849 -1.236373425 20
    vertex 162.7482758 -0.7641208172 20
  endloop
endfacet
facet normal 2.763659396e-16 -1 0
  outer loop
    vertex 163.3982849 -1.236373425 -20
    vertex 164.2017212 -1.236373425 -20
    vertex 164.2017212 -1.236373425 20
  endloop
endfacet
facet normal 2.763659396e-16 -1 0
  outer loop
    vertex 163.3982849 -1.236373425 -20
    vertex 164.2017212 -1.236373425 20
    vertex 163.3982849 -1.236373425 20
  endloop
endfacet
facet normal 0.587785244 -0.8090170026 0
  outer loop
    vertex 164.2017212 -1.236373425 -20
    vertex 164.8517151 -0.7641208172 -20
    vertex 164.8517151 -0.7641208172 20
  endloop
endfacet
facet normal 0.587785244 -0.8090170026 0
  outer loop
    vertex 164.2017212 -1.236373425 -20
    vertex 164.8517151 -0.7641208172 20
    vertex 164.2017212 -1.236373425 20
  endloop
endfacet
facet normal 0.95105654 -0.3090170026 0
  outer loop
    vertex 164.8517151 -0.7641208172 -20
    vertex 165.1000061 0 -20
    vertex 165.1000061 0 20
  endloop
endfacet
facet normal 0.95105654 -0.3090170026 0
  outer loop
    vertex 164.8517151 -0.7641208172 -20
    vertex 165.1000061 0 20
    vertex 164.8517151 -0.7641208172 20
  endloop
endfacet
facet normal 0.95105654 0.3090170026 0
  outer loop
    vertex 165.1000061 0 -20
    vertex 164.8517151 0.7641208172 -20
    vertex 164.8517151 0.7641208172 20
  endloop
endfacet
facet normal 0.95105654 0.3090170026 0
  outer loop
    vertex 165.1000061 0 -20
    vertex 164.8517151 0.7641208172 20
    vertex 165.1000061 0 20
  endloop
endfacet
facet normal 0.587785244 0.8090170026 0
  outer loop
    vertex 164.8517151 0.7641208172 -20
    vertex 164.2017212 1.236373425 -20
    vertex 164.2017212 1.236373425 20
  endloop
endfacet
facet normal 0.587785244 0.8090170026 0
  outer loop
    vertex 164.8517151 0.7641208172 -20
    vertex 164.2017212 1.236373425 20
    vertex 164.8517151 0.7641208172 20
  endloop
endfacet
facet normal 2.763659396e-16 1 0
  outer loop
    vertex 164.2017212 1.236373425 -20
    vertex 163.3982849 1.236373425 -20
    vertex 163.3982849 1.236373425 20
  endloop
endfacet
facet normal 2.763659396e-16 1 0
  outer loop
    vertex 164.2017212 1.236373425 -20
    vertex 163.3982849 1.236373425 20
    vertex 164.2017212 1.236373425 20
  endloop
endfacet
facet normal -0.587785244 0.8090170026 0
  outer loop
    vertex 163.3982849 1.236373425 -20
    vertex 162.7482758 0.7641208172 -20
    vertex 162.7482758 0.7641208172 20
  endloop
endfacet
facet normal -0.587785244 0.8090170026 0
  outer loop
    vertex 163.3982849 1.236373425 -20
    vertex 162.7482758 0.7641208172 20
    vertex 163.3982849 1.236373425 20
  endloop
endfacet
facet normal -0.95105654 0.3090170026 0
  outer loop
    vertex 162.7482758 0.7641208172 -20
    vertex 162.5 -1.592040776e-16 -20
    vertex 162.5 -1.592040776e-16 20
  endloop
endfacet
facet normal -0.95105654 0.3090170026 0
  outer loop
    vertex 162.7482758 0.7641208172 -20
    vertex 162.5 -1.592040776e-16 20
    vertex 162.7482758 0.7641208172 20
  endloop
endfacet
endsolid 
