solid 
facet normal 0 0 1
  outer loop
    vertex 13.80000019 0 20
    vertex 12.5 -1.592040776e-16 20
    vertex 12.74827766 -0.7641208172 20
  endloop
endfacet
facet normal 0 0 1
  outer loop
    vertex 13.80000019 0 20
    vertex 12.74827766 -0.7641208172 20
    vertex 13.39827824 -1.236373425 20
  endloop
endfacet
facet normal 0 0 1
  outer loop
    vertex 13.80000019 0 20
    vertex 13.39827824 -1.236373425 20
    vertex 14.20172215 -1.236373425 20
  endloop
endfacet
facet normal 0 0 1
  outer loop
    vertex 13.80000019 0 20
    vertex 14.20172215 -1.236373425 20
    vertex 14.85172176 -0.7641208172 20
  endloop
endfacet
facet normal 0 0 1
  outer loop
    vertex 13.80000019 0 20
    vertex 14.85172176 -0.7641208172 20
    vertex 15.10000038 0 20
  endloop
endfacet
facet normal 0 0 1
  outer loop
    vertex 13.80000019 0 20
    vertex 15.10000038 0 20
    vertex 14.85172176 0.7641208172 20
  endloop
endfacet
facet normal 0 0 1
  outer loop
    vertex 13.80000019 0 20
    vertex 14.85172176 0.7641208172 20
    vertex 14.20172215 1.236373425 20
  endloop
endfacet
facet normal 0 0 1
  outer loop
    vertex 13.80000019 0 20
    vertex 14.20172215 1.236373425 20
    vertex 13.39827824 1.236373425 20
  endloop
endfacet
facet normal 0 0 1
  outer loop
    vertex 13.80000019 0 20
    vertex 13.39827824 1.236373425 20
    vertex 12.74827766 0.7641208172 20
  endloop
endfacet
facet normal 0 0 1
  outer loop
    vertex 13.80000019 0 20
    vertex 12.74827766 0.7641208172 20
    vertex 12.5 -1.592040776e-16 20
  endloop
endfacet
facet normal 0 0 -1
  outer loop
    vertex 13.80000019 0 -20
    vertex 12.5 -1.592040776e-16 -20
    vertex 12.74827766 0.7641208172 -20
  endloop
endfacet
facet normal 0 0 -1
  outer loop
    vertex 13.80000019 0 -20
    vertex 12.74827766 0.7641208172 -20
    vertex 13.39827824 1.236373425 -20
  endloop
endfacet
facet normal 0 0 -1
  outer loop
    vertex 13.80000019 0 -20
    vertex 13.39827824 1.236373425 -20
    vertex 14.20172215 1.236373425 -20
  endloop
endfacet
facet normal 0 0 -1
  outer loop
    vertex 13.80000019 0 -20
    vertex 14.20172215 1.236373425 -20
    vertex 14.85172176 0.7641208172 -20
  endloop
endfacet
facet normal 0 0 -1
  outer loop
    vertex 13.80000019 0 -20
    vertex 14.85172176 0.7641208172 -20
    vertex 15.10000038 0 -20
  endloop
endfacet
facet normal 0 0 -1
  outer loop
    vertex 13.80000019 0 -20
    vertex 15.10000038 0 -20
    vertex 14.85172176 -0.7641208172 -20
  endloop
endfacet
facet normal 0 0 -1
  outer loop
    vertex 13.80000019 0 -20
    vertex 14.85172176 -0.7641208172 -20
    vertex 14.20172215 -1.236373425 -20
  endloop
endfacet
facet normal 0 0 -1
  outer loop
    vertex 13.80000019 0 -20
    vertex 14.20172215 -1.236373425 -20
    vertex 13.39827824 -1.236373425 -20
  endloop
endfacet
facet normal 0 0 -1
  outer loop
    vertex 13.80000019 0 -20
    vertex 13.39827824 -1.236373425 -20
    vertex 12.74827766 -0.7641208172 -20
  endloop
endfacet
facet normal 0 0 -1
  outer loop
    vertex 13.80000019 0 -20
    vertex 12.74827766 -0.7641208172 -20
    vertex 12.5 -1.592040776e-16 -20
  endloop
endfacet
facet normal -0.95105654 -0.3090170026 0
  outer loop
    vertex 12.5 -1.592040776e-16 -20
    vertex 12.74827766 -0.7641208172 -20
    vertex 12.74827766 -0.7641208172 20
  endloop
endfacet
facet normal -0.95105654 -0.3090170026 0
  outer loop
    vertex 12.5 -1.592040776e-16 -20
    vertex 12.74827766 -0.7641208172 20
    vertex 12.5 -1.592040776e-16 20
  endloop
endfacet
facet normal -0.587785244 -0.8090170026 0
  outer loop
    vertex 12.74827766 -0.7641208172 -20
    vertex 13.39827824 -1.236373425 -20
    vertex 13.39827824 -1.236373425 20
  endloop
endfacet
facet normal -0.587785244 -0.8090170026 0
  outer loop
    vertex 12.74827766 -0.7641208172 -20
    vertex 13.39827824 -1.236373425 20
    vertex 12.74827766 -0.7641208172 20
  endloop
endfacet
facet normal 2.763659396e-16 -1 0
  outer loop
    vertex 13.39827824 -1.236373425 -20
    vertex 14.20172215 -1.236373425 -20
    vertex 14.20172215 -1.236373425 20
  endloop
endfacet
facet normal 2.763659396e-16 -1 0
  outer loop
    vertex 13.39827824 -1.236373425 -20
    vertex 14.20172215 -1.236373425 20
    vertex 13.39827824 -1.236373425 20
  endloop
endfacet
facet normal 0.587785244 -0.8090170026 0
  outer loop
    vertex 14.20172215 -1.236373425 -20
    vertex 14.85172176 -0.7641208172 -20
    vertex 14.85172176 -0.7641208172 20
  endloop
endfacet
facet normal 0.587785244 -0.8090170026 0
  outer loop
    vertex 14.20172215 -1.236373425 -20
    vertex 14.85172176 -0.7641208172 20
    vertex 14.20172215 -1.236373425 20
  endloop
endfacet
facet normal 0.95105654 -0.3090170026 0
  outer loop
    vertex 14.85172176 -0.7641208172 -20
    vertex 15.10000038 0 -20
    vertex 15.10000038 0 20
  endloop
endfacet
facet normal 0.95105654 -0.3090170026 0
  outer loop
    vertex 14.85172176 -0.7641208172 -20
    vertex 15.10000038 0 20
    vertex 14.85172176 -0.7641208172 20
  endloop
endfacet
facet normal 0.95105654 0.3090170026 0
  outer loop
    vertex 15.10000038 0 -20
    vertex 14.85172176 0.7641208172 -20
    vertex 14.85172176 0.7641208172 20
  endloop
endfacet
facet normal 0.95105654 0.3090170026 0
  outer loop
    vertex 15.10000038 0 -20
    vertex 14.85172176 0.7641208172 20
    vertex 15.10000038 0 20
  endloop
endfacet
facet normal 0.587785244 0.8090170026 0
  outer loop
    vertex 14.85172176 0.7641208172 -20
    vertex 14.20172215 1.236373425 -20
    vertex 14.20172215 1.236373425 20
  endloop
endfacet
facet normal 0.587785244 0.8090170026 0
  outer loop
    vertex 14.85172176 0.7641208172 -20
    vertex 14.20172215 1.236373425 20
    vertex 14.85172176 0.7641208172 20
  endloop
endfacet
facet normal 2.763659396e-16 1 0
  outer loop
    vertex 14.20172215 1.236373425 -20
    vertex 13.39827824 1.236373425 -20
    vertex 13.39827824 1.236373425 20
  endloop
endfacet
facet normal 2.763659396e-16 1 0
  outer loop
    vertex 14.20172215 1.236373425 -20
    vertex 13.39827824 1.236373425 20
    vertex 14.20172215 1.236373425 20
  endloop
endfacet
facet normal -0.587785244 0.8090170026 0
  outer loop
    vertex 13.39827824 1.236373425 -20
    vertex 12.74827766 0.7641208172 -20
    vertex 12.74827766 0.7641208172 20
  endloop
endfacet
facet normal -0.587785244 0.8090170026 0
  outer loop
    vertex 13.39827824 1.236373425 -20
    vertex 12.74827766 0.7641208172 20
    vertex 13.39827824 1.236373425 20
  endloop
endfacet
facet normal -0.95105654 0.3090170026 0
  outer loop
    vertex 12.74827766 0.7641208172 -20
    vertex 12.5 -1.592040776e-16 -20
    vertex 12.5 -1.592040776e-16 20
  endloop
endfacet
facet normal -0.95105654 0.3090170026 0
  outer loop
    vertex 12.74827766 0.7641208172 -20
    vertex 12.5 -1.592040776e-16 20
    vertex 12.74827766 0.7641208172 20
  endloop
endfacet
endsolid 
