solid 
facet normal 0 0 1
  outer loop
    vertex 133.8000031 0 20
    vertex 132.5 -1.592040776e-16 20
    vertex 132.7482758 -0.7641208172 20
  endloop
endfacet
facet normal 0 0 1
  outer loop
    vertex 133.8000031 0 20
    vertex 132.7482758 -0.7641208172 20
    vertex 133.3982849 -1.236373425 20
  endloop
endfacet
facet normal 0 0 1
  outer loop
    vertex 133.8000031 0 20
    vertex 133.3982849 -1.236373425 20
    vertex 134.2017212 -1.236373425 20
  endloop
endfacet
facet normal 0 0 1
  outer loop
    vertex 133.8000031 0 20
    vertex 134.2017212 -1.236373425 20
    vertex 134.8517151 -0.7641208172 20
  endloop
endfacet
facet normal 0 0 1
  outer loop
    vertex 133.8000031 0 20
    vertex 134.8517151 -0.7641208172 20
    vertex 135.1000061 0 20
  endloop
endfacet
facet normal 0 0 1
  outer loop
    vertex 133.8000031 0 20
    vertex 135.1000061 0 20
    vertex 134.8517151 0.7641208172 20
  endloop
endfacet
facet normal 0 0 1
  outer loop
    vertex 133.8000031 0 20
    vertex 134.8517151 0.7641208172 20
    vertex 134.2017212 1.236373425 20
  endloop
endfacet
facet normal 0 0 1
  outer loop
    vertex 133.8000031 0 20
    vertex 134.2017212 1.236373425 20
    vertex 133.3982849 1.236373425 20
  endloop
endfacet
facet normal 0 0 1
  outer loop
    vertex 133.8000031 0 20
    vertex 133.3982849 1.236373425 20
    vertex 132.7482758 0.7641208172 20
  endloop
endfacet
facet normal 0 0 1
  outer loop
    vertex 133.8000031 0 20
    vertex 132.7482758 0.7641208172 20
    vertex 132.5 -1.592040776e-16 20
  endloop
endfacet
facet normal 0 0 -1
  outer loop
    vertex 133.8000031 0 -20
    vertex 132.5 -1.592040776e-16 -20
    vertex 132.7482758 0.7641208172 -20
  endloop
endfacet
facet normal 0 0 -1
  outer loop
    vertex 133.8000031 0 -20
    vertex 132.7482758 0.7641208172 -20
    vertex 133.3982849 1.236373425 -20
  endloop
endfacet
facet normal 0 0 -1
  outer loop
    vertex 133.8000031 0 -20
    vertex 133.3982849 1.236373425 -20
    vertex 134.2017212 1.236373425 -20
  endloop
endfacet
facet normal 0 0 -1
  outer loop
    vertex 133.8000031 0 -20
    vertex 134.2017212 1.236373425 -20
    vertex 134.8517151 0.7641208172 -20
  endloop
endfacet
facet normal 0 0 -1
  outer loop
    vertex 133.8000031 0 -20
    vertex 134.8517151 0.7641208172 -20
    vertex 135.1000061 0 -20
  endloop
endfacet
facet normal 0 0 -1
  outer loop
    vertex 133.8000031 0 -20
    vertex 135.1000061 0 -20
    vertex 134.8517151 -0.7641208172 -20
  endloop
endfacet
facet normal 0 0 -1
  outer loop
    vertex 133.8000031 0 -20
    vertex 134.8517151 -0.7641208172 -20
    vertex 134.2017212 -1.236373425 -20
  endloop
endfacet
facet normal 0 0 -1
  outer loop
    vertex 133.8000031 0 -20
    vertex 134.2017212 -1.236373425 -20
    vertex 133.3982849 -1.236373425 -20
  endloop
endfacet
facet normal 0 0 -1
  outer loop
    vertex 133.8000031 0 -20
    vertex 133.3982849 -1.236373425 -20
    vertex 132.7482758 -0.7641208172 -20
  endloop
endfacet
facet normal 0 0 -1
  outer loop
    vertex 133.8000031 0 -20
    vertex 132.7482758 -0.7641208172 -20
    vertex 132.5 -1.592040776e-16 -20
  endloop
endfacet
facet normal -0.95105654 -0.3090170026 0
  outer loop
    vertex 132.5 -1.592040776e-16 -20
    vertex 132.7482758 -0.7641208172 -20
    vertex 132.7482758 -0.7641208172 20
  endloop
endfacet
facet normal -0.95105654 -0.3090170026 0
  outer loop
    vertex 132.5 -1.592040776e-16 -20
    vertex 132.7482758 -0.7641208172 20
    vertex 132.5 -1.592040776e-16 20
  endloop
endfacet
facet normal -0.587785244 -0.8090170026 0
  outer loop
    vertex 132.7482758 -0.7641208172 -20
    vertex 133.3982849 -1.236373425 -20
    vertex 133.3982849 -1.236373425 20
  endloop
endfacet
facet normal -0.587785244 -0.8090170026 0
  outer loop
    vertex 132.7482758 -0.7641208172 -20
    vertex 133.3982849 -1.236373425 20
    vertex 132.7482758 -0.7641208172 20
  endloop
endfacet
facet normal 2.763659396e-16 -1 0
  outer loop
    vertex 133.3982849 -1.236373425 -20
    vertex 134.2017212 -1.236373425 -20
    vertex 134.2017212 -1.236373425 20
  endloop
endfacet
facet normal 2.763659396e-16 -1 0
  outer loop
    vertex 133.3982849 -1.236373425 -20
    vertex 134.2017212 -1.236373425 20
    vertex 133.3982849 -1.236373425 20
  endloop
endfacet
facet normal 0.587785244 -0.8090170026 0
  outer loop
    vertex 134.2017212 -1.236373425 -20
    vertex 134.8517151 -0.7641208172 -20
    vertex 134.8517151 -0.7641208172 20
  endloop
endfacet
facet normal 0.587785244 -0.8090170026 0
  outer loop
    vertex 134.2017212 -1.236373425 -20
    vertex 134.8517151 -0.7641208172 20
    vertex 134.2017212 -1.236373425 20
  endloop
endfacet
facet normal 0.95105654 -0.3090170026 0
  outer loop
    vertex 134.8517151 -0.7641208172 -20
    vertex 135.1000061 0 -20
    vertex 135.1000061 0 20
  endloop
endfacet
facet normal 0.95105654 -0.3090170026 0
  outer loop
    vertex 134.8517151 -0.7641208172 -20
    vertex 135.1000061 0 20
    vertex 134.8517151 -0.7641208172 20
  endloop
endfacet
facet normal 0.95105654 0.3090170026 0
  outer loop
    vertex 135.1000061 0 -20
    vertex 134.8517151 0.7641208172 -20
    vertex 134.8517151 0.7641208172 20
  endloop
endfacet
facet normal 0.95105654 0.3090170026 0
  outer loop
    vertex 135.1000061 0 -20
    vertex 134.8517151 0.7641208172 20
    vertex 135.1000061 0 20
  endloop
endfacet
facet normal 0.587785244 0.8090170026 0
  outer loop
    vertex 134.8517151 0.7641208172 -20
    vertex 134.2017212 1.236373425 -20
    vertex 134.2017212 1.236373425 20
  endloop
endfacet
facet normal 0.587785244 0.8090170026 0
  outer loop
    vertex 134.8517151 0.7641208172 -20
    vertex 134.2017212 1.236373425 20
    vertex 134.8517151 0.7641208172 20
  endloop
endfacet
facet normal 2.763659396e-16 1 0
  outer loop
    vertex 134.2017212 1.236373425 -20
    vertex 133.3982849 1.236373425 -20
    vertex 133.3982849 1.236373425 20
  endloop
endfacet
facet normal 2.763659396e-16 1 0
  outer loop
    vertex 134.2017212 1.236373425 -20
    vertex 133.3982849 1.236373425 20
    vertex 134.2017212 1.236373425 20
  endloop
endfacet
facet normal -0.587785244 0.8090170026 0
  outer loop
    vertex 133.3982849 1.236373425 -20
    vertex 132.7482758 0.7641208172 -20
    vertex 132.7482758 0.7641208172 20
  endloop
endfacet
facet normal -0.587785244 0.8090170026 0
  outer loop
    vertex 133.3982849 1.236373425 -20
    vertex 132.7482758 0.7641208172 20
    vertex 133.3982849 1.236373425 20
  endloop
endfacet
facet normal -0.95105654 0.3090170026 0
  outer loop
    vertex 132.7482758 0.7641208172 -20
    vertex 132.5 -1.592040776e-16 -20
    vertex 132.5 -1.592040776e-16 20
  endloop
endfacet
facet normal -0.95105654 0.3090170026 0
  outer loop
    vertex 132.7482758 0.7641208172 -20
    vertex 132.5 -1.592040776e-16 20
    vertex 132.7482758 0.7641208172 20
  endloop
endfacet
endsolid 
