solid 
facet normal 0 0 1
  outer loop
    vertex 53.79999924 0 20
    vertex 52.5 -1.592040776e-16 20
    vertex 52.74827957 -0.7641208172 20
  endloop
endfacet
facet normal 0 0 1
  outer loop
    vertex 53.79999924 0 20
    vertex 52.74827957 -0.7641208172 20
    vertex 53.39827728 -1.236373425 20
  endloop
endfacet
facet normal 0 0 1
  outer loop
    vertex 53.79999924 0 20
    vertex 53.39827728 -1.236373425 20
    vertex 54.20172119 -1.236373425 20
  endloop
endfacet
facet normal 0 0 1
  outer loop
    vertex 53.79999924 0 20
    vertex 54.20172119 -1.236373425 20
    vertex 54.85172272 -0.7641208172 20
  endloop
endfacet
facet normal 0 0 1
  outer loop
    vertex 53.79999924 0 20
    vertex 54.85172272 -0.7641208172 20
    vertex 55.09999847 0 20
  endloop
endfacet
facet normal 0 0 1
  outer loop
    vertex 53.79999924 0 20
    vertex 55.09999847 0 20
    vertex 54.85172272 0.7641208172 20
  endloop
endfacet
facet normal 0 0 1
  outer loop
    vertex 53.79999924 0 20
    vertex 54.85172272 0.7641208172 20
    vertex 54.20172119 1.236373425 20
  endloop
endfacet
facet normal 0 0 1
  outer loop
    vertex 53.79999924 0 20
    vertex 54.20172119 1.236373425 20
    vertex 53.39827728 1.236373425 20
  endloop
endfacet
facet normal 0 0 1
  outer loop
    vertex 53.79999924 0 20
    vertex 53.39827728 1.236373425 20
    vertex 52.74827957 0.7641208172 20
  endloop
endfacet
facet normal 0 0 1
  outer loop
    vertex 53.79999924 0 20
    vertex 52.74827957 0.7641208172 20
    vertex 52.5 -1.592040776e-16 20
  endloop
endfacet
facet normal 0 0 -1
  outer loop
    vertex 53.79999924 0 -20
    vertex 52.5 -1.592040776e-16 -20
    vertex 52.74827957 0.7641208172 -20
  endloop
endfacet
facet normal 0 0 -1
  outer loop
    vertex 53.79999924 0 -20
    vertex 52.74827957 0.7641208172 -20
    vertex 53.39827728 1.236373425 -20
  endloop
endfacet
facet normal 0 0 -1
  outer loop
    vertex 53.79999924 0 -20
    vertex 53.39827728 1.236373425 -20
    vertex 54.20172119 1.236373425 -20
  endloop
endfacet
facet normal 0 0 -1
  outer loop
    vertex 53.79999924 0 -20
    vertex 54.20172119 1.236373425 -20
    vertex 54.85172272 0.7641208172 -20
  endloop
endfacet
facet normal 0 0 -1
  outer loop
    vertex 53.79999924 0 -20
    vertex 54.85172272 0.7641208172 -20
    vertex 55.09999847 0 -20
  endloop
endfacet
facet normal 0 0 -1
  outer loop
    vertex 53.79999924 0 -20
    vertex 55.09999847 0 -20
    vertex 54.85172272 -0.7641208172 -20
  endloop
endfacet
facet normal 0 0 -1
  outer loop
    vertex 53.79999924 0 -20
    vertex 54.85172272 -0.7641208172 -20
    vertex 54.20172119 -1.236373425 -20
  endloop
endfacet
facet normal 0 0 -1
  outer loop
    vertex 53.79999924 0 -20
    vertex 54.20172119 -1.236373425 -20
    vertex 53.39827728 -1.236373425 -20
  endloop
endfacet
facet normal 0 0 -1
  outer loop
    vertex 53.79999924 0 -20
    vertex 53.39827728 -1.236373425 -20
    vertex 52.74827957 -0.7641208172 -20
  endloop
endfacet
facet normal 0 0 -1
  outer loop
    vertex 53.79999924 0 -20
    vertex 52.74827957 -0.7641208172 -20
    vertex 52.5 -1.592040776e-16 -20
  endloop
endfacet
facet normal -0.95105654 -0.3090170026 0
  outer loop
    vertex 52.5 -1.592040776e-16 -20
    vertex 52.74827957 -0.7641208172 -20
    vertex 52.74827957 -0.7641208172 20
  endloop
endfacet
facet normal -0.95105654 -0.3090170026 0
  outer loop
    vertex 52.5 -1.592040776e-16 -20
    vertex 52.74827957 -0.7641208172 20
    vertex 52.5 -1.592040776e-16 20
  endloop
endfacet
facet normal -0.587785244 -0.8090170026 0
  outer loop
    vertex 52.74827957 -0.7641208172 -20
    vertex 53.39827728 -1.236373425 -20
    vertex 53.39827728 -1.236373425 20
  endloop
endfacet
facet normal -0.587785244 -0.8090170026 0
  outer loop
    vertex 52.74827957 -0.7641208172 -20
    vertex 53.39827728 -1.236373425 20
    vertex 52.74827957 -0.7641208172 20
  endloop
endfacet
facet normal 2.763659396e-16 -1 0
  outer loop
    vertex 53.39827728 -1.236373425 -20
    vertex 54.20172119 -1.236373425 -20
    vertex 54.20172119 -1.236373425 20
  endloop
endfacet
facet normal 2.763659396e-16 -1 0
  outer loop
    vertex 53.39827728 -1.236373425 -20
    vertex 54.20172119 -1.236373425 20
    vertex 53.39827728 -1.236373425 20
  endloop
endfacet
facet normal 0.587785244 -0.8090170026 0
  outer loop
    vertex 54.20172119 -1.236373425 -20
    vertex 54.85172272 -0.7641208172 -20
    vertex 54.85172272 -0.7641208172 20
  endloop
endfacet
facet normal 0.587785244 -0.8090170026 0
  outer loop
    vertex 54.20172119 -1.236373425 -20
    vertex 54.85172272 -0.7641208172 20
    vertex 54.20172119 -1.236373425 20
  endloop
endfacet
facet normal 0.95105654 -0.3090170026 0
  outer loop
    vertex 54.85172272 -0.7641208172 -20
    vertex 55.09999847 0 -20
    vertex 55.09999847 0 20
  endloop
endfacet
facet normal 0.95105654 -0.3090170026 0
  outer loop
    vertex 54.85172272 -0.7641208172 -20
    vertex 55.09999847 0 20
    vertex 54.85172272 -0.7641208172 20
  endloop
endfacet
facet normal 0.95105654 0.3090170026 0
  outer loop
    vertex 55.09999847 0 -20
    vertex 54.85172272 0.7641208172 -20
    vertex 54.85172272 0.7641208172 20
  endloop
endfacet
facet normal 0.95105654 0.3090170026 0
  outer loop
    vertex 55.09999847 0 -20
    vertex 54.85172272 0.7641208172 20
    vertex 55.09999847 0 20
  endloop
endfacet
facet normal 0.587785244 0.8090170026 0
  outer loop
    vertex 54.85172272 0.7641208172 -20
    vertex 54.20172119 1.236373425 -20
    vertex 54.20172119 1.236373425 20
  endloop
endfacet
facet normal 0.587785244 0.8090170026 0
  outer loop
    vertex 54.85172272 0.7641208172 -20
    vertex 54.20172119 1.236373425 20
    vertex 54.85172272 0.7641208172 20
  endloop
endfacet
facet normal 2.763659396e-16 1 0
  outer loop
    vertex 54.20172119 1.236373425 -20
    vertex 53.39827728 1.236373425 -20
    vertex 53.39827728 1.236373425 20
  endloop
endfacet
facet normal 2.763659396e-16 1 0
  outer loop
    vertex 54.20172119 1.236373425 -20
    vertex 53.39827728 1.236373425 20
    vertex 54.20172119 1.236373425 20
  endloop
endfacet
facet normal -0.587785244 0.8090170026 0
  outer loop
    vertex 53.39827728 1.236373425 -20
    vertex 52.74827957 0.7641208172 -20
    vertex 52.74827957 0.7641208172 20
  endloop
endfacet
facet normal -0.587785244 0.8090170026 0
  outer loop
    vertex 53.39827728 1.236373425 -20
    vertex 52.74827957 0.7641208172 20
    vertex 53.39827728 1.236373425 20
  endloop
endfacet
facet normal -0.95105654 0.3090170026 0
  outer loop
    vertex 52.74827957 0.7641208172 -20
    vertex 52.5 -1.592040776e-16 -20
    vertex 52.5 -1.592040776e-16 20
  endloop
endfacet
facet normal -0.95105654 0.3090170026 0
  outer loop
    vertex 52.74827957 0.7641208172 -20
    vertex 52.5 -1.592040776e-16 20
    vertex 52.74827957 0.7641208172 20
  endloop
endfacet
endsolid 
